<?xml version="1.0" standalone="no"?>
<!DOCTYPE svg PUBLIC "-//W3C//DTD SVG 20010904//EN"
 "http://www.w3.org/TR/2001/REC-SVG-20010904/DTD/svg10.dtd">
<svg version="1.0" xmlns="http://www.w3.org/2000/svg"
 width="128.000000pt" height="128.000000pt" viewBox="0 0 128.000000 128.000000"
 preserveAspectRatio="xMidYMid meet">
<metadata>
Created by potrace 1.14, written by Peter Selinger 2001-2017
</metadata>
<g transform="translate(0.000000,128.000000) scale(0.100000,-0.100000)"
fill="#000000" stroke="none">
<path d="M470 1050 c-25 -25 -26 -55 0 -77 20 -17 25 -49 14 -88 -5 -19 -13
-20 -114 -19 -149 1 -179 -22 -130 -101 11 -17 18 -40 16 -51 -2 -10 -11 -59
-20 -109 -33 -180 -38 -195 -68 -216 -31 -22 -37 -59 -13 -81 39 -35 42 -37
55 -25 10 9 11 9 5 -2 -6 -11 -4 -13 8 -8 19 7 49 -1 43 -12 -3 -4 4 -7 15 -7
19 0 18 1 -3 17 -21 16 -21 17 -3 16 11 -1 26 -11 33 -22 11 -17 12 -17 8 -2
-3 11 -2 15 4 12 6 -3 10 -1 10 6 0 7 6 4 14 -6 8 -11 12 -24 9 -29 -4 -5 -1
-6 6 -2 9 6 9 11 -1 24 -11 13 -11 15 4 9 9 -3 19 -1 22 6 3 7 3 1 0 -13 l-7
-25 22 25 c13 14 19 19 15 11 -5 -11 -3 -13 9 -8 9 3 19 2 23 -4 3 -6 13 -8
22 -4 8 3 19 0 24 -7 6 -11 8 -10 8 0 0 7 4 11 9 7 5 -3 13 0 17 6 4 8 3 9 -4
5 -7 -4 -12 -2 -12 3 0 10 21 16 43 12 7 -1 11 15 8 32 -1 5 3 6 8 3 5 -4 10
2 10 11 0 10 2 27 5 38 2 11 5 25 5 32 1 6 10 15 22 18 16 5 18 10 8 21 -9 11
-8 15 4 20 9 3 14 13 11 22 -5 13 -2 13 10 -2 19 -23 21 -14 4 17 -10 20 -10
21 6 8 14 -12 16 -12 10 4 -5 13 -4 16 4 11 8 -5 10 -2 5 9 -5 13 -7 14 -14 3
-6 -9 -9 -6 -10 12 -1 14 -1 28 0 32 0 5 -7 8 -16 8 -14 0 -13 3 5 20 27 25
27 29 5 25 -10 -1 -17 -8 -15 -14 3 -14 -15 -15 -23 -1 -3 6 -1 10 4 10 6 0
10 3 10 7 -3 21 2 37 9 28 4 -5 16 -15 27 -21 11 -6 37 -45 58 -87 43 -88 46
-78 -39 -170 -29 -31 -55 -53 -58 -50 -3 4 -6 -1 -6 -10 0 -15 -11 -22 -25
-14 -2 1 -11 -7 -19 -18 -9 -11 -16 -15 -16 -10 -1 22 -20 -22 -20 -46 0 -42
36 -64 103 -64 42 0 61 -4 67 -15 8 -13 9 -12 10 4 0 12 5 16 16 12 9 -3 18
-6 20 -6 3 0 3 -4 -1 -9 -3 -5 -1 -12 4 -15 10 -7 9 13 -2 31 -5 8 0 9 15 5
13 -3 19 -1 15 6 -4 5 -3 21 2 34 6 14 10 17 10 7 2 -29 37 -50 92 -54 30 -1
58 -3 62 -4 5 -1 5 -7 1 -13 -6 -10 -5 -10 7 -1 8 6 26 13 41 15 14 2 32 9 40
16 8 6 17 9 21 6 3 -3 14 -1 24 5 17 10 17 10 -2 11 l-20 1 20 9 c11 5 14 9 8
9 -7 1 -13 10 -13 21 0 11 -4 20 -9 20 -20 0 -61 49 -54 66 4 11 2 15 -4 11
-6 -4 -16 7 -23 24 -11 25 -11 32 -1 39 10 5 9 9 -4 13 -10 5 -14 3 -9 -5 4
-7 3 -8 -5 -4 -6 4 -9 11 -6 16 3 4 -2 13 -10 20 -7 6 -11 18 -8 26 6 16 33
19 33 3 0 -5 -4 -8 -9 -4 -5 3 -13 0 -17 -6 -5 -8 -3 -9 6 -4 9 6 11 4 5 -4
-5 -9 -1 -9 14 1 27 16 26 22 -1 36 -13 6 -17 11 -10 11 7 1 10 6 6 13 -4 7
-3 8 5 4 6 -4 9 -11 7 -15 -3 -4 4 -8 15 -8 10 -1 19 3 19 8 0 6 6 7 13 3 9
-6 9 -5 0 8 -13 15 -8 28 9 28 5 0 6 -4 3 -10 -3 -5 -1 -10 4 -10 16 0 13 16
-4 30 -11 9 -15 9 -15 1 0 -7 -4 -10 -8 -7 -5 3 9 25 31 50 l41 45 24 -20 c27
-21 42 -18 37 9 -2 9 -4 22 -4 27 -1 6 -5 3 -10 -5 -6 -8 -7 -18 -5 -22 3 -4
0 -8 -5 -8 -18 0 -12 26 10 46 12 10 23 17 26 16 3 -2 8 -1 11 3 4 4 0 5 -8 3
-8 -1 -14 2 -13 9 2 6 -9 21 -24 32 -21 17 -40 21 -108 21 -62 0 -86 -4 -95
-15 -17 -21 -21 -68 -7 -77 9 -6 9 -8 -1 -8 -7 0 -10 -5 -7 -10 4 -6 1 -9 -6
-8 -7 2 -13 -2 -14 -9 0 -6 -4 -15 -9 -20 -5 -4 -6 -3 -3 4 4 6 1 13 -5 16
-10 3 -8 9 5 24 9 11 17 31 17 46 0 41 -33 56 -130 58 -64 1 -88 6 -98 18 -12
15 -13 14 -8 -1 3 -12 1 -15 -10 -11 -9 3 -11 9 -6 17 5 6 8 19 7 29 -2 9 0
17 5 17 5 0 7 8 6 18 -2 9 2 20 8 25 8 5 6 10 -4 17 -10 6 -11 10 -3 10 7 0
10 7 7 18 -4 10 -3 13 3 6 9 -12 64 -14 57 -3 -2 4 0 10 6 14 6 4 7 11 4 17
-5 7 -1 9 9 5 9 -3 19 -1 23 6 4 7 4 9 -1 5 -15 -14 -43 11 -38 32 3 11 -2 31
-10 44 -15 22 -22 24 -121 25 -94 2 -107 0 -126 -19z m256 -95 c-1 -8 -5 -18
-9 -22 -11 -11 -38 -13 -31 -2 3 5 -1 9 -8 9 -10 0 -9 3 2 9 8 6 18 7 22 5 4
-3 8 0 8 5 0 6 4 11 9 11 5 0 8 -7 7 -15z m-284 -257 c-5 -7 -8 -25 -7 -40 2
-16 -3 -32 -13 -40 -13 -11 -14 -11 -6 2 5 8 10 26 10 40 2 44 4 50 15 50 8 0
8 -4 1 -12z m564 -163 c-4 -24 -16 -30 -16 -7 0 12 4 22 9 22 5 0 8 -7 7 -15z
m-596 -55 c0 10 3 10 15 0 12 -10 15 -10 16 1 0 10 2 11 6 1 2 -6 10 -9 16 -5
7 4 4 -5 -6 -20 -9 -15 -15 -27 -12 -27 4 0 0 -7 -9 -15 -24 -25 -51 -6 -52
37 -1 31 2 36 12 27 11 -9 14 -8 14 1z m203 -11 c-6 -6 -9 -18 -6 -25 3 -8 1
-14 -4 -14 -13 0 -12 32 1 46 6 7 13 10 15 8 3 -2 0 -9 -6 -15z m204 -155 c4
-11 -1 -22 -13 -31 -10 -8 -18 -17 -16 -21 2 -3 -2 -8 -10 -10 -8 -2 -9 0 -3
5 14 11 17 33 5 33 -5 0 -10 -5 -10 -12 0 -6 -3 -8 -6 -5 -8 8 23 57 37 57 5
0 12 -7 16 -16z m-347 -34 c0 -5 -5 -10 -11 -10 -5 0 -7 5 -4 10 3 6 8 10 11
10 2 0 4 -4 4 -10z"/>
<path d="M696 938 c3 -5 10 -6 15 -3 13 9 11 12 -6 12 -8 0 -12 -4 -9 -9z"/>
<path d="M392 454 c1 -11 8 -26 15 -33 10 -9 12 -7 10 11 -1 12 3 23 10 23 20
0 23 11 3 12 -11 1 -20 -4 -20 -10 0 -7 -4 -6 -10 3 -7 12 -9 11 -8 -6z"/>
<path d="M785 311 c-6 -11 13 -26 22 -17 4 3 0 6 -8 6 -11 0 -11 2 1 10 9 6
10 10 3 10 -6 0 -14 -4 -18 -9z"/>
<path d="M746 997 c3 -10 9 -15 12 -12 3 3 0 11 -7 18 -10 9 -11 8 -5 -6z"/>
<path d="M674 878 c0 -10 1 -18 3 -18 1 0 7 8 12 18 7 13 6 19 -2 19 -7 0 -13
-9 -13 -19z"/>
<path d="M662 844 c4 -4 3 -16 -3 -27 -7 -12 -7 -17 -1 -13 6 3 12 0 15 -6 3
-10 8 -10 18 1 8 8 9 11 2 7 -16 -9 -29 14 -13 24 8 5 7 9 -6 14 -10 4 -15 4
-12 0z"/>
<path d="M1151 657 c16 -31 18 -32 16 -8 -1 11 -7 23 -14 26 -11 4 -11 0 -2
-18z"/>
<path d="M879 653 c-13 -16 -12 -17 4 -4 9 7 17 15 17 17 0 8 -8 3 -21 -13z"/>
<path d="M1057 605 c-21 -26 -23 -34 -12 -39 15 -5 39 27 28 38 -3 3 1 6 10 6
18 0 23 15 9 24 -4 2 -20 -10 -35 -29z m6 -20 c-3 -9 -8 -14 -10 -11 -3 3 -2
9 2 15 9 16 15 13 8 -4z"/>
<path d="M1100 600 c-9 -6 -10 -10 -3 -10 6 0 15 5 18 10 8 12 4 12 -15 0z"/>
<path d="M679 498 c-5 -18 -6 -38 -1 -34 7 8 12 36 6 36 -2 0 -4 -1 -5 -2z"/>
<path d="M599 393 c-8 -9 -9 -14 -2 -10 6 4 13 4 16 0 2 -5 2 -3 1 4 -2 6 2
14 9 17 8 3 8 5 1 5 -6 1 -18 -7 -25 -16z"/>
<path d="M586 355 c-3 -8 0 -17 6 -21 6 -4 8 -3 4 4 -3 5 -1 12 6 14 8 3 9 6
1 11 -6 4 -13 0 -17 -8z"/>
<path d="M235 261 c-3 -5 -2 -12 3 -15 5 -3 9 1 9 9 0 17 -3 19 -12 6z"/>
<path d="M1029 173 c-12 -14 -12 -16 0 -8 11 6 13 4 8 -8 -9 -23 0 -21 13 2
13 25 -3 36 -21 14z"/>
<path d="M1075 182 c3 -3 -1 -12 -7 -21 -8 -10 -4 -9 10 3 26 23 26 23 7 23
-8 0 -13 -3 -10 -5z"/>
<path d="M790 169 c0 -5 5 -7 10 -4 6 3 10 8 10 11 0 2 -4 4 -10 4 -5 0 -10
-5 -10 -11z"/>
<path d="M626 161 c8 -8 64 -10 64 -2 0 4 -16 7 -35 7 -19 0 -32 -2 -29 -5z"/>
<path d="M721 154 c0 -11 3 -14 6 -6 3 7 2 16 -1 19 -3 4 -6 -2 -5 -13z"/>
<path d="M840 159 c0 -5 5 -7 10 -4 6 3 10 8 10 11 0 2 -4 4 -10 4 -5 0 -10
-5 -10 -11z"/>
<path d="M881 156 c-9 -11 -9 -16 0 -22 7 -4 9 -3 5 4 -3 5 0 12 6 15 7 2 10
7 7 11 -3 4 -12 0 -18 -8z"/>
<path d="M914 156 c1 -8 5 -18 8 -22 4 -3 5 1 4 10 -1 8 -5 18 -8 22 -4 3 -5
-1 -4 -10z"/>
<path d="M996 161 c-3 -5 1 -11 9 -14 9 -4 12 -1 8 9 -6 16 -10 17 -17 5z"/>
</g>
</svg>
